<?xml version="1.0" encoding="UTF-8" standalone="no"?>
<svg
   xmlns:dc="http://purl.org/dc/elements/1.1/"
   xmlns:cc="http://creativecommons.org/ns#"
   xmlns:rdf="http://www.w3.org/1999/02/22-rdf-syntax-ns#"
   xmlns:svg="http://www.w3.org/2000/svg"
   xmlns="http://www.w3.org/2000/svg"
   xmlns:sodipodi="http://sodipodi.sourceforge.net/DTD/sodipodi-0.dtd"
   xmlns:inkscape="http://www.inkscape.org/namespaces/inkscape"
   width="882pt"
   height="425pt"
   viewBox="0 0 882 425"
   version="1.1"
   id="svg4136"
   inkscape:version="0.91 r13725"
   sodipodi:docname="FHWS-Logo-2013_web_rgb.svg">
  <metadata
     id="metadata4310">
    <rdf:RDF>
      <cc:Work
         rdf:about="">
        <dc:format>image/svg+xml</dc:format>
        <dc:type
           rdf:resource="http://purl.org/dc/dcmitype/StillImage" />
      </cc:Work>
    </rdf:RDF>
  </metadata>
  <defs
     id="defs4308" />
  <sodipodi:namedview
     pagecolor="#ffffff"
     bordercolor="#666666"
     borderopacity="1"
     objecttolerance="10"
     gridtolerance="10"
     guidetolerance="10"
     inkscape:pageopacity="0"
     inkscape:pageshadow="2"
     inkscape:window-width="1920"
     inkscape:window-height="1017"
     id="namedview4306"
     showgrid="false"
     inkscape:zoom="1.3052154"
     inkscape:cx="181.10337"
     inkscape:cy="418.85641"
     inkscape:window-x="-8"
     inkscape:window-y="-8"
     inkscape:window-maximized="1"
     inkscape:current-layer="svg4136" />
  <path
     fill="#ed7004"
     d=" M 0.00 2.58 C 4.14 0.99 8.63 1.50 12.97 1.47 C 39.66 1.50 66.35 1.47 93.04 1.48 C 94.80 1.40 97.40 1.90 97.39 4.14 C 97.72 8.58 97.75 13.07 97.37 17.51 C 97.06 20.09 93.98 20.18 91.98 20.17 C 68.75 20.08 45.51 20.22 22.28 20.08 C 22.26 35.24 22.26 50.41 22.28 65.57 C 41.52 65.48 60.77 65.55 80.01 65.51 C 81.81 65.47 84.58 65.73 84.59 68.11 C 84.99 72.67 85.02 77.30 84.56 81.86 C 84.16 84.48 80.97 84.11 79.02 84.22 C 60.11 84.11 41.19 84.27 22.27 84.12 C 22.26 104.77 22.26 125.42 22.28 146.06 C 22.31 148.05 22.17 151.08 19.62 151.37 C 14.44 151.76 9.21 151.57 4.02 151.50 C 2.29 151.69 1.14 150.28 0.00 149.23 L 0.00 2.58 Z"
     id="path4140" />
  <path
     fill="#ed7004"
     d=" M 200.75 1.71 C 204.47 1.15 208.27 1.61 212.02 1.46 C 214.62 1.56 217.37 1.09 219.83 2.13 C 220.93 4.60 220.47 7.38 220.57 10.00 C 220.52 55.68 220.56 101.35 220.55 147.03 C 220.73 148.84 220.06 151.25 217.91 151.42 C 212.42 151.64 206.89 151.64 201.40 151.43 C 199.22 151.19 198.55 148.87 198.76 146.99 C 198.76 126.03 198.78 105.08 198.76 84.13 C 178.97 84.22 159.18 84.21 139.40 84.13 C 139.37 105.08 139.40 126.03 139.39 146.98 C 139.59 148.86 138.70 151.22 136.58 151.45 C 131.36 151.69 126.13 151.54 120.91 151.52 C 118.51 151.73 116.75 149.32 117.15 147.06 C 117.14 100.00 117.16 52.95 117.14 5.89 C 116.94 4.01 117.75 1.43 120.08 1.56 C 125.73 1.42 131.40 1.32 137.04 1.62 C 139.19 1.87 139.46 4.26 139.40 5.98 C 139.38 25.85 139.38 45.71 139.39 65.58 C 159.17 65.49 178.96 65.50 198.74 65.57 C 198.79 45.71 198.76 25.86 198.76 6.00 C 198.86 4.43 198.59 1.90 200.75 1.71 Z"
     id="path4142" />
  <path
     fill="#ed7004"
     d=" M 277.32 5.97 C 277.48 4.30 276.71 1.63 279.06 1.31 C 284.70 0.86 290.40 1.15 296.06 1.15 C 297.97 0.97 299.11 2.89 299.14 4.58 C 299.98 27.37 300.24 50.19 300.79 72.99 C 302.87 88.16 304.84 103.36 307.23 118.49 C 313.81 97.27 320.20 75.99 326.71 54.75 C 327.30 53.24 327.79 50.80 329.89 50.88 C 337.85 50.83 345.86 50.51 353.80 51.07 C 355.38 52.84 355.85 55.22 356.57 57.41 C 362.46 76.98 368.54 96.49 374.39 116.07 C 374.70 116.54 375.51 119.89 375.55 116.98 C 377.54 102.70 379.64 88.43 381.46 74.12 C 382.51 51.77 382.45 29.37 383.10 7.00 C 383.23 4.98 382.96 2.17 385.29 1.27 C 391.15 0.96 397.05 1.05 402.91 1.21 C 405.34 1.33 405.45 4.03 405.24 5.88 C 403.74 29.06 403.19 52.30 401.67 75.48 C 397.73 99.33 393.75 123.17 389.94 147.04 C 389.68 148.78 388.90 150.36 388.12 151.91 C 381.39 151.82 374.65 152.01 367.92 151.86 C 365.86 152.10 365.38 149.77 364.83 148.33 C 356.89 122.88 349.16 97.37 341.07 71.97 C 334.01 96.32 326.07 120.41 318.78 144.69 C 317.90 147.07 317.60 149.83 315.74 151.71 C 309.14 152.14 302.49 151.85 295.87 151.87 C 293.74 152.00 292.88 149.63 292.68 147.90 C 288.84 124.26 284.93 100.62 281.02 76.99 C 279.49 62.70 279.62 48.29 278.67 33.95 C 278.27 24.62 277.52 15.31 277.32 5.97 Z"
     id="path4144" />
  <path
     fill="#ed7004"
     d=" M 504.13 1.16 C 511.08 0.81 518.04 1.09 525.00 1.00 C 529.64 1.11 534.37 0.61 538.91 1.79 C 548.10 3.93 556.84 9.02 562.21 16.92 C 566.93 23.67 569.30 31.88 569.90 40.03 C 569.03 42.47 566.06 42.06 564.01 42.14 C 559.33 42.02 554.62 42.39 549.96 41.91 C 547.30 40.31 547.85 36.52 546.78 33.94 C 544.87 26.10 537.55 20.80 529.85 19.54 C 520.80 18.16 511.22 18.33 502.57 21.60 C 497.29 23.62 492.57 27.87 491.33 33.55 C 489.69 40.78 490.26 49.54 496.37 54.60 C 506.00 62.83 519.10 64.73 531.17 66.82 C 542.63 69.14 554.84 72.06 563.46 80.51 C 570.79 87.61 573.36 98.13 573.58 108.03 C 573.94 118.41 572.46 129.52 565.98 137.99 C 559.82 146.12 549.91 150.48 540.04 152.00 C 531.11 153.45 522.03 153.09 513.01 153.07 C 501.99 152.84 490.45 150.43 481.77 143.24 C 472.99 136.21 468.62 125.07 467.50 114.14 C 467.36 111.54 466.17 107.78 469.16 106.31 C 474.79 106.05 480.45 106.20 486.09 106.23 C 488.14 106.03 489.04 108.27 489.12 109.95 C 489.67 114.78 490.30 119.78 492.94 123.99 C 495.49 128.46 500.06 131.49 504.96 132.85 C 512.44 134.96 520.30 134.49 527.98 134.30 C 534.80 133.74 542.49 132.78 547.36 127.44 C 552.62 121.29 551.68 112.58 551.42 105.07 C 551.32 99.29 547.46 94.18 542.36 91.72 C 527.43 84.11 509.91 85.11 494.59 78.58 C 483.70 74.36 473.39 66.19 470.35 54.45 C 467.40 42.80 467.79 29.59 474.07 19.06 C 480.45 8.66 492.29 2.70 504.13 1.16 Z"
     id="path4146" />
  <path
     fill="#ed7004"
     d=" M 243.77 61.00 C 243.79 59.50 243.61 56.84 245.85 57.01 C 250.14 56.85 254.53 56.52 258.77 57.33 C 259.63 58.70 259.25 60.43 259.39 61.97 C 259.25 76.72 259.50 91.47 259.26 106.22 C 254.14 106.56 248.98 106.61 243.87 106.16 C 243.68 91.11 243.85 76.05 243.77 61.00 Z"
     id="path4148" />
  <path
     fill="#ed7004"
     d=" M 416.71 73.90 C 432.17 74.03 447.63 73.70 463.09 74.07 C 463.53 79.15 463.44 84.25 463.20 89.34 C 447.64 89.53 432.08 89.41 416.52 89.40 C 415.99 84.26 415.78 79.01 416.71 73.90 Z"
     id="path4150" />
  <path
     fill="#2c2c2a"
     d=" M 118.15 263.92 C 120.70 263.91 123.25 263.90 125.80 263.90 C 125.83 269.25 125.80 274.60 125.83 279.96 C 130.17 279.85 134.50 279.88 138.84 279.94 C 138.88 274.59 138.85 269.24 138.86 263.89 C 141.43 263.90 143.99 263.92 146.56 263.97 C 146.53 276.97 146.56 289.97 146.55 302.97 C 143.99 303.02 141.43 303.03 138.87 303.04 C 138.86 297.55 138.85 292.06 138.88 286.57 C 134.52 286.57 130.17 286.59 125.81 286.56 C 125.80 292.04 125.84 297.51 125.79 302.99 C 123.25 303.02 120.71 303.03 118.17 303.02 C 118.10 289.98 118.15 276.95 118.15 263.92 Z"
     id="path4152" />
  <path
     fill="#2c2c2a"
     d=" M 210.85 263.91 C 213.28 263.91 215.70 263.91 218.13 263.91 C 218.13 268.19 218.19 272.47 218.02 276.75 C 220.88 274.78 224.43 273.21 227.93 274.52 C 232.17 275.48 234.41 279.94 234.42 284.01 C 234.53 290.35 234.43 296.70 234.43 303.05 C 232.07 303.03 229.71 303.02 227.35 302.99 C 227.18 296.69 227.63 290.37 227.15 284.09 C 226.57 279.49 218.84 279.45 218.27 284.03 C 217.93 290.35 218.24 296.69 218.13 303.03 C 215.70 303.02 213.28 303.02 210.85 303.03 C 210.84 289.99 210.85 276.95 210.85 263.91 Z"
     id="path4154" />
  <path
     fill="#2c2c2a"
     d=" M 295.69 263.91 C 298.05 263.91 300.42 263.90 302.78 263.90 C 302.81 268.25 302.85 272.61 302.71 276.96 C 305.32 274.87 308.71 273.33 312.10 274.37 C 316.59 275.08 319.25 279.74 319.25 284.02 C 319.36 290.36 319.24 296.70 319.26 303.04 C 316.82 303.03 314.37 303.02 311.93 302.98 C 311.82 296.63 312.13 290.26 311.80 283.92 C 311.23 279.47 303.50 279.50 303.00 284.06 C 302.49 290.35 302.98 296.68 302.77 302.99 C 300.41 303.02 298.06 303.03 295.71 303.04 C 295.68 290.00 295.69 276.95 295.69 263.91 Z"
     id="path4156" />
  <path
     fill="#2c2c2a"
     d=" M 357.84 263.90 C 360.26 263.90 362.68 263.91 365.11 263.91 C 365.18 274.26 364.97 284.62 365.20 294.96 C 365.30 297.57 368.56 296.68 370.27 296.99 C 370.27 299.02 370.26 301.06 370.25 303.10 C 367.52 302.94 364.60 303.33 362.07 302.08 C 359.37 300.90 357.79 297.88 357.85 295.01 C 357.79 284.64 357.86 274.27 357.84 263.90 Z"
     id="path4158" />
  <path
     fill="#2c2c2a"
     d=" M 162.41 274.53 C 167.23 273.24 173.03 274.72 175.89 279.02 C 178.46 282.86 177.97 287.70 177.86 292.09 C 177.73 296.37 175.22 300.66 171.12 302.26 C 165.49 304.94 157.71 302.75 155.03 296.92 C 153.40 292.46 153.43 287.52 154.29 282.90 C 154.98 278.81 158.40 275.43 162.41 274.53 Z"
     id="path4160" />
  <path
     fill="#2c2c2a"
     d=" M 184.81 280.68 C 188.38 272.84 199.81 272.15 205.64 277.81 C 204.05 279.42 202.45 281.03 200.90 282.68 C 198.54 280.65 194.37 279.47 192.14 282.27 C 189.99 285.36 190.10 289.57 191.07 293.07 C 191.61 295.66 194.53 297.30 197.04 296.75 C 198.40 296.27 199.62 295.49 200.88 294.79 C 202.45 296.34 204.02 297.89 205.58 299.45 C 199.97 305.32 188.67 304.58 184.98 296.99 C 182.66 291.98 182.72 285.75 184.81 280.68 Z"
     id="path4162" />
  <path
     fill="#2c2c2a"
     d=" M 245.42 275.53 C 250.92 273.12 258.00 273.59 262.74 277.46 C 261.30 278.89 259.87 280.32 258.43 281.75 C 255.14 280.23 248.59 278.11 247.43 283.13 C 249.61 286.50 254.48 284.75 257.80 286.12 C 264.44 287.51 265.55 297.47 260.04 300.95 C 253.65 304.91 244.73 304.03 238.96 299.26 C 240.59 297.72 242.19 296.14 243.76 294.53 C 247.21 297.07 252.33 298.46 256.07 295.74 C 256.33 294.59 256.40 293.43 256.30 292.25 C 251.57 290.92 245.43 292.22 242.02 287.97 C 239.40 283.85 240.87 277.64 245.42 275.53 Z"
     id="path4164" />
  <path
     fill="#2c2c2a"
     d=" M 270.70 278.76 C 275.29 272.59 285.08 272.81 290.47 277.83 C 288.82 279.44 287.16 281.04 285.53 282.68 C 283.51 280.97 280.78 279.97 278.21 281.09 C 274.68 283.42 275.12 288.26 275.52 291.92 C 275.70 294.69 278.23 296.94 280.99 296.89 C 282.72 296.63 284.18 295.56 285.71 294.80 C 287.25 296.40 288.83 297.97 290.37 299.59 C 285.23 304.33 276.50 304.84 271.53 299.61 C 266.84 293.86 266.69 284.91 270.70 278.76 Z"
     id="path4166" />
  <path
     fill="#2c2c2a"
     d=" M 326.50 274.42 C 328.86 274.44 331.23 274.44 333.60 274.43 C 333.75 280.61 333.36 286.81 333.77 292.98 C 334.13 297.52 341.36 298.23 342.60 293.91 C 343.45 287.47 342.64 280.92 343.03 274.44 C 345.42 274.45 347.81 274.46 350.20 274.49 C 350.16 284.00 350.20 293.51 350.18 303.03 C 347.85 303.03 345.53 303.03 343.21 303.03 C 343.24 302.42 343.28 301.21 343.31 300.61 C 341.06 301.95 338.72 303.54 335.97 303.40 C 331.30 303.47 326.81 299.68 326.65 294.89 C 326.25 288.08 326.57 281.24 326.50 274.42 Z"
     id="path4168" />
  <path
     fill="#2c2c2a"
     d=" M 376.24 278.26 C 381.18 272.06 392.46 272.85 396.15 280.00 C 398.18 283.27 397.99 287.22 397.94 290.91 C 391.95 290.92 385.96 290.88 379.97 290.92 C 380.54 293.04 381.02 295.62 383.33 296.53 C 386.61 298.28 390.37 296.75 393.03 294.60 C 394.44 296.04 395.87 297.46 397.31 298.89 C 392.65 303.49 385.16 304.81 379.32 301.76 C 375.68 300.01 373.81 296.02 373.27 292.20 C 372.70 287.43 373.10 282.13 376.24 278.26 Z"
     id="path4170" />
  <path
     fill="#fefefe"
     d=" M 379.98 286.07 C 380.31 282.91 382.46 279.59 386.04 280.07 C 389.26 280.21 390.66 283.29 391.11 286.07 C 387.40 286.09 383.69 286.09 379.98 286.07 Z"
     id="path4172" />
  <path
     fill="#fefefe"
     d=" M 163.11 280.86 C 165.59 280.65 168.90 280.24 170.06 283.08 C 171.04 286.45 170.90 290.12 170.29 293.55 C 169.50 297.54 163.21 297.99 161.71 294.25 C 160.26 289.91 160.32 284.68 163.11 280.86 Z"
     id="path4174" />
  <path
     fill="#2c2c2a"
     d=" M 436.09 319.54 C 437.42 319.57 438.75 319.61 440.09 319.66 C 440.03 332.65 440.19 345.65 440.01 358.64 C 438.71 358.64 437.43 358.65 436.15 358.66 C 436.14 357.93 436.13 356.48 436.12 355.76 C 433.82 357.69 431.11 359.34 427.97 358.83 C 422.56 359.28 418.74 353.91 418.75 348.94 C 418.53 343.61 417.91 337.16 422.30 333.24 C 426.36 330.17 432.47 330.86 436.09 334.34 C 436.01 329.40 435.99 324.47 436.09 319.54 Z"
     id="path4176" />
  <path
     fill="#2c2c2a"
     d=" M 506.03 319.57 C 507.53 319.57 509.03 319.58 510.55 319.58 C 512.93 330.08 515.72 340.47 518.01 350.99 C 520.97 340.53 523.73 330.02 526.65 319.55 C 527.57 319.55 529.41 319.56 530.33 319.57 C 533.42 330.02 536.05 340.61 539.03 351.09 C 541.35 340.52 544.00 330.03 546.60 319.54 C 548.12 319.56 549.65 319.59 551.18 319.62 C 547.57 332.56 544.47 345.64 541.07 358.64 C 539.78 358.64 538.49 358.64 537.22 358.65 C 534.23 348.36 531.42 338.02 528.60 327.68 C 525.49 337.94 522.83 348.33 519.90 358.64 C 518.60 358.63 517.31 358.63 516.03 358.63 C 512.59 345.64 509.32 332.60 506.03 319.57 Z"
     id="path4178" />
  <path
     fill="#2c2c2a"
     d=" M 556.61 319.54 C 558.03 319.52 559.45 319.50 560.89 319.49 C 560.94 321.03 560.98 322.57 561.03 324.11 C 559.57 324.13 558.12 324.15 556.67 324.18 C 556.64 322.63 556.62 321.08 556.61 319.54 Z"
     id="path4180" />
  <path
     fill="#2c2c2a"
     d=" M 737.54 319.60 C 738.88 319.58 740.23 319.56 741.58 319.55 C 741.60 324.47 741.65 329.40 741.51 334.33 C 746.48 329.22 757.18 330.67 758.47 338.40 C 759.27 345.09 758.64 351.88 758.81 358.62 C 757.46 358.64 756.13 358.65 754.81 358.67 C 754.73 353.10 754.86 347.53 754.77 341.96 C 754.73 339.53 754.00 336.60 751.52 335.59 C 747.89 333.63 742.18 335.53 741.82 340.03 C 741.26 346.24 741.79 352.49 741.57 358.72 C 740.21 358.66 738.86 358.62 737.53 358.57 C 737.60 345.58 737.56 332.59 737.54 319.60 Z"
     id="path4182" />
  <path
     fill="#2c2c2a"
     d=" M 121.33 321.29 C 123.42 319.20 126.58 319.52 129.29 319.39 C 129.20 320.18 129.03 321.78 128.94 322.57 C 127.22 323.16 124.65 322.65 123.81 324.69 C 122.97 326.99 123.42 329.51 123.30 331.91 C 125.24 331.90 127.17 331.88 129.12 331.88 C 129.10 332.62 129.07 334.12 129.06 334.87 C 127.14 334.87 125.23 334.87 123.31 334.88 C 123.32 342.82 123.37 350.76 123.28 358.70 C 121.96 358.67 120.64 358.65 119.32 358.62 C 119.30 350.70 119.32 342.79 119.30 334.87 C 118.45 334.87 116.75 334.86 115.90 334.86 C 115.90 334.10 115.89 332.59 115.88 331.83 C 116.73 331.88 118.41 331.97 119.26 332.01 C 119.43 328.41 118.61 324.18 121.33 321.29 Z"
     id="path4184" />
  <path
     fill="#2c2c2a"
     d=" M 138.09 320.64 C 139.46 320.65 140.83 320.68 142.21 320.71 C 142.15 322.35 142.17 324.00 141.96 325.64 C 140.69 325.76 139.42 325.85 138.15 325.90 C 138.11 324.14 138.09 322.39 138.09 320.64 Z"
     id="path4186" />
  <path
     fill="#2c2c2a"
     d=" M 149.68 320.68 C 151.02 320.67 152.36 320.65 153.71 320.64 C 153.71 322.36 153.70 324.08 153.68 325.81 C 152.34 325.79 151.00 325.78 149.66 325.77 C 149.66 324.07 149.67 322.38 149.68 320.68 Z"
     id="path4188" />
  <path
     fill="#2c2c2a"
     d=" M 799.65 321.59 C 801.58 319.29 804.86 319.54 807.57 319.30 C 807.57 320.17 807.57 321.91 807.57 322.78 C 805.82 323.04 803.59 322.68 802.49 324.40 C 801.40 326.75 801.95 329.44 801.85 331.95 C 803.76 331.90 805.69 331.86 807.63 331.84 C 807.60 332.62 807.53 334.20 807.50 334.98 C 805.61 334.91 803.73 334.85 801.85 334.81 C 801.81 342.76 801.89 350.70 801.81 358.65 C 800.50 358.64 799.20 358.64 797.90 358.65 C 797.84 350.70 797.89 342.76 797.88 334.82 C 797.04 334.87 795.38 334.98 794.54 335.03 C 794.50 334.24 794.41 332.67 794.37 331.88 C 795.24 331.89 796.97 331.92 797.84 331.94 C 798.02 328.47 797.14 324.45 799.65 321.59 Z"
     id="path4190" />
  <path
     fill="#2c2c2a"
     d=" M 450.41 323.31 C 451.41 323.31 453.42 323.33 454.42 323.33 C 454.42 326.19 454.42 329.06 454.43 331.93 C 456.41 331.91 458.40 331.88 460.39 331.88 C 460.29 332.60 460.08 334.05 459.98 334.77 C 458.13 334.92 456.28 334.87 454.43 334.89 C 454.44 339.95 454.39 345.02 454.41 350.09 C 454.40 351.76 454.55 353.82 456.13 354.81 C 457.47 354.97 458.82 355.07 460.18 355.12 C 460.18 356.02 460.19 357.83 460.20 358.73 C 456.34 359.11 451.51 357.93 450.69 353.52 C 449.97 347.35 450.58 341.08 450.39 334.87 C 449.58 334.88 447.96 334.89 447.15 334.90 C 447.12 334.16 447.05 332.67 447.01 331.93 C 448.14 331.91 449.27 331.89 450.41 331.88 C 450.39 329.02 450.38 326.16 450.41 323.31 Z"
     id="path4192" />
  <path
     fill="#2c2c2a"
     d=" M 814.95 323.40 C 815.92 323.38 817.87 323.34 818.85 323.32 C 818.89 326.19 818.90 329.06 818.92 331.93 C 820.83 331.90 822.73 331.86 824.66 331.84 C 824.63 332.63 824.58 334.20 824.55 334.98 C 822.66 334.91 820.78 334.86 818.91 334.82 C 819.03 340.85 818.60 346.92 819.10 352.94 C 819.79 355.46 822.75 354.83 824.75 355.25 C 824.67 356.43 824.60 357.60 824.54 358.79 C 820.89 359.00 816.26 358.10 815.24 353.98 C 814.58 347.65 815.12 341.25 814.95 334.89 C 813.77 334.89 812.59 334.88 811.43 334.88 C 811.40 334.18 811.35 332.77 811.32 332.07 C 812.53 331.98 813.74 331.89 814.96 331.82 C 814.95 329.01 814.94 326.20 814.95 323.40 Z"
     id="path4194" />
  <path
     fill="#2c2c2a"
     d=" M 170.46 334.41 C 173.76 331.17 179.26 330.19 183.21 332.79 C 185.27 333.96 182.53 335.51 181.88 336.72 C 179.80 335.67 177.54 334.18 175.11 335.08 C 172.08 335.80 170.26 338.92 170.41 341.91 C 170.33 347.47 170.42 353.04 170.40 358.61 C 169.40 358.64 167.41 358.70 166.42 358.73 C 166.24 349.74 166.39 340.74 166.33 331.75 C 167.64 331.70 168.96 331.66 170.28 331.63 C 170.33 332.32 170.41 333.72 170.46 334.41 Z"
     id="path4196" />
  <path
     fill="#2c2c2a"
     d=" M 201.76 334.97 C 205.86 330.75 212.39 330.54 217.67 332.36 C 220.22 333.54 222.18 336.10 222.09 338.99 C 222.33 345.53 222.10 352.07 222.19 358.61 C 221.21 358.63 219.25 358.66 218.27 358.68 C 218.26 358.08 218.24 356.88 218.23 356.28 C 214.80 359.29 209.94 359.32 205.73 358.31 C 200.47 356.52 198.96 348.68 203.37 345.22 C 207.54 341.81 213.37 343.70 218.28 343.23 C 217.98 340.91 218.71 337.99 216.70 336.27 C 212.86 333.51 207.44 334.57 204.13 337.68 C 203.34 336.77 202.55 335.87 201.76 334.97 Z"
     id="path4198" />
  <path
     fill="#2c2c2a"
     d=" M 235.89 334.09 C 238.47 332.23 241.57 330.80 244.83 331.41 C 249.17 331.68 252.95 335.60 252.84 339.99 C 253.04 346.20 252.87 352.42 252.89 358.63 C 251.56 358.64 250.24 358.64 248.91 358.65 C 248.73 352.39 249.14 346.12 248.70 339.88 C 248.37 335.60 242.94 333.71 239.42 335.46 C 236.75 336.36 235.75 339.40 235.72 341.97 C 235.60 347.52 235.75 353.07 235.68 358.62 C 234.36 358.64 233.05 358.67 231.73 358.70 C 231.64 349.70 231.71 340.70 231.69 331.69 C 232.62 331.68 234.47 331.66 235.39 331.65 C 235.52 332.26 235.77 333.48 235.89 334.09 Z"
     id="path4200" />
  <path
     fill="#2c2c2a"
     d=" M 262.76 335.77 C 265.76 330.08 274.43 329.98 278.54 334.50 C 278.54 333.78 278.54 332.35 278.54 331.63 C 279.51 331.65 281.46 331.70 282.43 331.72 C 282.41 340.79 282.44 349.86 282.43 358.93 C 282.47 362.86 280.98 367.12 277.48 369.24 C 272.51 372.18 265.93 371.10 261.74 367.27 C 262.64 366.45 263.55 365.64 264.46 364.83 C 267.33 366.93 271.17 368.52 274.58 366.62 C 278.87 364.60 278.27 359.14 278.61 355.21 C 276.24 357.26 273.35 359.12 270.06 358.59 C 266.02 358.39 262.49 355.23 261.76 351.27 C 260.66 346.19 260.61 340.59 262.76 335.77 Z"
     id="path4202" />
  <path
     fill="#2c2c2a"
     d=" M 359.13 335.01 C 363.19 330.90 369.53 330.53 374.77 332.24 C 377.56 333.23 379.49 335.97 379.62 338.91 C 379.89 345.47 379.65 352.05 379.72 358.62 C 378.49 358.65 377.27 358.68 376.06 358.71 C 375.95 358.10 375.72 356.89 375.61 356.28 C 372.38 359.41 367.61 359.15 363.52 358.42 C 358.26 356.88 356.48 349.38 360.40 345.58 C 364.58 341.67 370.77 343.73 375.89 343.22 C 375.74 340.89 375.41 338.59 374.77 336.35 C 370.69 334.05 365.08 333.95 361.87 337.78 C 360.96 336.85 360.04 335.93 359.13 335.01 Z"
     id="path4204" />
  <path
     fill="#2c2c2a"
     d=" M 393.11 334.25 C 396.06 332.03 399.79 330.54 403.49 331.63 C 407.52 332.26 410.22 336.17 410.38 340.08 C 410.61 346.29 410.45 352.51 410.42 358.73 C 409.09 358.69 407.77 358.66 406.45 358.63 C 406.26 352.41 406.76 346.17 406.20 339.98 C 405.72 333.41 394.70 333.10 393.60 339.47 C 392.80 345.82 393.48 352.29 393.25 358.70 C 391.90 358.66 390.55 358.62 389.20 358.58 C 389.21 349.63 389.21 340.67 389.21 331.72 C 390.55 331.70 391.91 331.68 393.26 331.66 C 393.22 332.31 393.15 333.60 393.11 334.25 Z"
     id="path4206" />
  <path
     fill="#2c2c2a"
     d=" M 468.11 336.11 C 471.82 329.56 482.92 329.71 486.34 336.47 C 488.21 339.34 488.00 342.88 488.17 346.16 C 482.06 346.18 475.95 346.13 469.85 346.18 C 470.30 349.14 470.71 352.62 473.57 354.31 C 477.32 356.36 482.16 355.32 485.13 352.33 C 486.01 353.20 486.90 354.07 487.80 354.94 C 484.28 358.14 479.59 359.61 474.88 358.66 C 470.82 358.01 467.45 354.59 466.66 350.59 C 465.61 345.81 465.67 340.46 468.11 336.11 Z"
     id="path4208" />
  <path
     fill="#2c2c2a"
     d=" M 572.84 332.83 C 577.91 330.19 584.23 331.22 589.04 334.00 C 588.16 334.92 587.29 335.84 586.43 336.76 C 582.60 334.53 577.89 333.90 573.88 336.06 C 573.42 337.93 572.50 340.22 574.17 341.79 C 578.04 344.38 583.30 342.16 587.18 344.82 C 591.82 347.71 590.62 355.71 585.60 357.60 C 579.90 359.96 572.66 359.26 567.93 355.09 C 568.74 354.15 569.64 353.27 570.53 352.39 C 574.07 355.56 579.27 356.10 583.68 354.65 C 586.62 353.44 587.12 348.53 584.00 347.27 C 580.09 346.37 575.78 346.98 572.16 344.98 C 567.84 342.34 568.45 335.11 572.84 332.83 Z"
     id="path4210" />
  <path
     fill="#2c2c2a"
     d=" M 652.85 331.75 C 654.15 331.70 655.46 331.66 656.78 331.62 C 656.81 332.28 656.86 333.58 656.89 334.23 C 659.77 331.90 663.61 330.59 667.29 331.65 C 671.16 332.34 673.95 336.10 674.02 339.96 C 674.32 346.17 674.04 352.39 674.15 358.60 C 673.14 358.62 671.14 358.65 670.14 358.66 C 669.89 352.44 670.43 346.19 669.88 339.99 C 669.64 335.61 664.11 333.69 660.57 335.48 C 657.93 336.37 656.96 339.41 656.93 341.95 C 656.80 347.51 656.98 353.07 656.86 358.64 C 655.54 358.64 654.22 358.64 652.91 358.65 C 652.80 349.68 652.90 340.72 652.85 331.75 Z"
     id="path4212" />
  <path
     fill="#2c2c2a"
     d=" M 766.91 335.03 C 771.06 330.87 777.53 330.49 782.85 332.33 C 785.92 333.53 787.57 336.80 787.56 339.98 C 787.67 346.20 787.57 352.42 787.58 358.65 C 786.25 358.66 784.94 358.68 783.63 358.70 C 783.64 358.08 783.65 356.83 783.66 356.21 C 780.18 359.37 775.08 359.34 770.81 358.22 C 764.99 356.12 764.49 346.76 770.17 344.19 C 774.39 342.34 779.22 343.56 783.70 343.23 C 783.49 340.99 783.72 338.53 782.39 336.58 C 778.74 333.63 772.78 334.13 769.76 337.78 C 768.80 336.86 767.85 335.94 766.91 335.03 Z"
     id="path4214" />
  <path
     fill="#2c2c2a"
     d=" M 860.85 331.77 C 862.14 331.71 863.44 331.65 864.76 331.61 C 864.80 332.22 864.88 333.44 864.92 334.05 C 867.83 332.13 871.35 330.61 874.91 331.57 C 878.34 331.94 880.51 334.91 882.00 337.74 L 882.00 358.63 C 880.71 358.64 879.43 358.65 878.16 358.67 C 877.87 352.15 878.59 345.58 877.76 339.10 C 876.29 333.42 866.82 333.45 865.31 339.10 C 864.39 345.57 865.18 352.15 864.87 358.67 C 863.53 358.65 862.20 358.63 860.88 358.62 C 860.84 349.67 860.88 340.72 860.85 331.77 Z"
     id="path4216" />
  <path
     fill="#2c2c2a"
     d=" M 135.61 351.14 C 135.19 344.65 135.50 338.14 135.45 331.65 C 136.45 331.66 138.46 331.69 139.46 331.70 C 139.59 338.08 139.15 344.48 139.69 350.85 C 140.51 355.20 146.03 356.29 149.52 354.50 C 151.72 353.17 152.66 350.49 152.63 348.02 C 152.70 342.56 152.60 337.10 152.65 331.64 C 154.00 331.67 155.35 331.71 156.70 331.75 C 156.60 340.74 156.78 349.74 156.60 358.74 C 155.63 358.71 153.69 358.65 152.72 358.62 C 152.74 357.90 152.77 356.47 152.79 355.76 C 150.48 357.39 148.02 359.22 145.01 358.84 C 140.49 359.32 135.91 355.73 135.61 351.14 Z"
     id="path4218" />
  <path
     fill="#2c2c2a"
     d=" M 293.27 335.44 C 297.10 329.83 306.73 329.92 310.49 335.56 C 312.71 338.59 312.76 342.55 312.96 346.16 C 306.81 346.16 300.65 346.18 294.50 346.12 C 294.79 349.24 295.59 352.75 298.50 354.48 C 302.35 356.34 306.91 355.12 309.99 352.34 C 310.80 353.23 311.61 354.13 312.43 355.03 C 309.44 357.39 305.94 359.36 301.98 358.83 C 296.76 359.24 292.12 355.14 291.17 350.12 C 290.38 345.22 290.29 339.68 293.27 335.44 Z"
     id="path4220" />
  <path
     fill="#2c2c2a"
     d=" M 316.55 331.61 C 318.02 331.65 319.50 331.70 320.98 331.75 C 322.95 338.87 324.97 345.97 327.01 353.08 C 329.47 345.94 331.71 338.72 334.06 331.54 C 335.28 331.54 336.47 331.73 337.62 332.11 C 340.21 338.88 341.83 346.00 344.73 352.65 C 346.72 345.66 348.67 338.65 350.66 331.65 C 351.74 331.66 353.91 331.69 355.00 331.70 C 352.14 340.75 349.39 349.84 346.35 358.84 C 345.19 358.63 343.87 358.84 342.81 358.30 C 340.27 351.49 338.14 344.53 335.77 337.65 C 333.53 344.69 331.12 351.67 328.76 358.66 C 327.58 358.66 326.41 358.66 325.24 358.66 C 322.12 349.71 319.48 340.61 316.55 331.61 Z"
     id="path4222" />
  <path
     fill="#2c2c2a"
     d=" M 556.79 331.66 C 558.10 331.68 559.42 331.71 560.75 331.75 C 560.68 340.71 560.76 349.68 560.70 358.64 C 559.41 358.65 558.12 358.67 556.84 358.69 C 556.73 349.67 556.82 340.66 556.79 331.66 Z"
     id="path4224" />
  <path
     fill="#2c2c2a"
     d=" M 599.03 332.86 C 604.09 330.19 610.40 331.20 615.22 333.95 C 614.41 334.87 613.61 335.79 612.82 336.71 C 609.19 335.06 604.57 333.43 600.94 335.92 C 598.80 337.27 598.66 340.81 600.95 342.10 C 604.72 344.17 609.55 342.31 613.24 344.73 C 617.44 347.00 617.26 353.77 613.58 356.46 C 610.37 359.24 605.85 358.95 601.90 358.68 C 598.95 358.48 596.48 356.70 594.10 355.13 C 594.98 354.22 595.87 353.32 596.77 352.43 C 600.31 355.48 605.37 356.07 609.76 354.74 C 612.66 353.66 613.39 349.03 610.62 347.43 C 606.56 346.27 602.02 347.04 598.22 344.92 C 594.04 342.10 594.71 335.21 599.03 332.86 Z"
     id="path4226" />
  <path
     fill="#2c2c2a"
     d=" M 624.39 336.45 C 627.66 330.14 637.65 329.54 641.92 335.06 C 644.37 338.20 644.75 342.32 644.86 346.16 C 638.67 346.16 632.48 346.20 626.30 346.11 C 626.74 349.23 627.34 352.90 630.42 354.57 C 634.24 356.32 638.45 354.96 641.67 352.63 C 642.34 353.13 643.68 354.14 644.35 354.64 C 639.27 360.40 628.25 360.74 624.27 353.60 C 621.75 348.28 621.77 341.72 624.39 336.45 Z"
     id="path4228" />
  <path
     fill="#2c2c2a"
     d=" M 685.95 332.79 C 691.03 330.28 697.42 331.07 702.09 334.16 C 701.42 334.80 700.08 336.09 699.41 336.73 C 695.60 334.49 690.90 333.93 686.92 336.07 C 686.50 337.94 685.61 340.18 687.23 341.76 C 691.25 344.48 696.89 342.00 700.77 345.19 C 704.91 348.48 703.37 355.84 698.51 357.68 C 692.72 360.00 685.70 359.06 680.81 355.12 C 681.76 354.22 682.71 353.31 683.67 352.41 C 687.15 355.60 692.33 356.06 696.69 354.68 C 699.43 353.51 700.21 349.33 697.66 347.54 C 693.64 346.18 689.00 347.13 685.19 344.98 C 680.93 342.29 681.55 335.05 685.95 332.79 Z"
     id="path4230" />
  <path
     fill="#2c2c2a"
     d=" M 714.39 333.29 C 719.24 330.00 726.13 330.92 730.24 335.01 C 729.43 335.94 728.63 336.88 727.84 337.82 C 725.14 335.46 721.29 333.74 717.84 335.61 C 712.32 338.28 712.89 345.78 714.16 350.78 C 716.33 356.29 724.13 356.62 727.69 352.32 C 728.48 353.21 729.32 354.07 730.04 355.04 C 725.00 361.26 713.54 359.79 710.59 352.20 C 708.42 346.01 708.59 337.50 714.39 333.29 Z"
     id="path4232" />
  <path
     fill="#2c2c2a"
     d=" M 832.43 336.43 C 835.75 329.87 846.37 329.56 850.32 335.64 C 852.42 338.70 852.59 342.57 852.78 346.16 C 846.59 346.16 840.41 346.20 834.23 346.11 C 834.60 349.29 835.42 352.88 838.44 354.60 C 842.15 356.13 846.57 355.32 849.43 352.46 C 850.37 353.21 851.31 353.97 852.26 354.74 C 847.41 359.94 837.73 360.71 833.10 354.87 C 829.54 349.50 829.49 342.09 832.43 336.43 Z"
     id="path4234" />
  <path
     fill="#fefefe"
     d=" M 269.29 335.27 C 272.22 334.11 276.35 335.21 277.41 338.43 C 278.81 342.79 278.86 347.75 277.11 352.01 C 274.63 356.89 266.11 355.45 265.61 349.88 C 264.91 345.07 263.92 337.72 269.29 335.27 Z"
     id="path4236" />
  <path
     fill="#fefefe"
     d=" M 298.52 335.51 C 301.65 333.62 306.07 335.05 307.80 338.17 C 308.40 339.79 308.67 341.51 309.03 343.20 C 304.17 343.24 299.31 343.23 294.45 343.21 C 294.88 340.32 295.57 336.87 298.52 335.51 Z"
     id="path4238" />
  <path
     fill="#fefefe"
     d=" M 426.39 335.46 C 428.73 334.33 431.65 334.74 433.67 336.35 C 436.14 339.30 436.15 343.40 435.99 347.04 C 435.83 349.81 435.12 353.04 432.60 354.64 C 430.04 355.58 426.45 355.78 424.59 353.44 C 422.37 350.86 422.71 347.19 422.64 344.02 C 422.67 340.88 423.09 336.87 426.39 335.46 Z"
     id="path4240" />
  <path
     fill="#fefefe"
     d=" M 469.82 343.20 C 470.02 339.46 471.83 335.26 476.02 334.74 C 480.95 333.82 484.45 338.70 484.35 343.21 C 479.50 343.23 474.66 343.23 469.82 343.20 Z"
     id="path4242" />
  <path
     fill="#fefefe"
     d=" M 628.14 337.27 C 630.24 334.58 634.41 333.80 637.27 335.78 C 639.98 337.20 640.29 340.55 640.96 343.20 C 636.05 343.24 631.14 343.23 626.24 343.21 C 626.74 341.20 626.94 339.02 628.14 337.27 Z"
     id="path4244" />
  <path
     fill="#fefefe"
     d=" M 837.78 335.78 C 840.21 334.14 843.53 334.36 845.81 336.17 C 848.13 337.72 848.19 340.76 848.84 343.21 C 843.94 343.23 839.05 343.23 834.15 343.21 C 834.75 340.54 835.15 337.27 837.78 335.78 Z"
     id="path4246" />
  <path
     fill="#fefefe"
     d=" M 207.52 346.69 C 210.98 345.69 214.68 346.31 218.24 346.12 C 218.08 349.07 218.82 352.94 215.68 354.63 C 212.94 355.66 209.86 355.63 207.06 354.84 C 203.66 353.41 203.94 347.70 207.52 346.69 Z"
     id="path4248" />
  <path
     fill="#fefefe"
     d=" M 365.46 346.53 C 368.84 345.81 372.35 346.25 375.80 346.14 C 375.61 349.11 376.16 353.30 372.83 354.77 C 370.06 355.65 367.02 355.61 364.25 354.77 C 361.08 352.84 361.67 347.30 365.46 346.53 Z"
     id="path4250" />
  <path
     fill="#fefefe"
     d=" M 771.10 347.29 C 775.09 345.65 779.45 346.23 783.65 346.13 C 783.47 349.09 784.00 353.16 780.78 354.72 C 777.99 355.65 774.91 355.62 772.12 354.79 C 769.39 353.16 769.94 349.73 771.10 347.29 Z"
     id="path4252" />
  <path
     fill="#2c2c2a"
     d=" M 168.44 374.06 C 170.45 374.08 172.46 374.07 174.47 374.05 C 174.51 376.43 174.53 378.80 174.54 381.19 C 172.48 381.18 170.43 381.19 168.38 381.19 C 168.39 378.81 168.40 376.44 168.44 374.06 Z"
     id="path4254" />
  <path
     fill="#2c2c2a"
     d=" M 180.53 374.05 C 182.56 374.07 184.59 374.07 186.62 374.07 C 186.67 376.44 186.68 378.81 186.69 381.19 C 184.61 381.19 182.54 381.19 180.47 381.19 C 180.47 378.81 180.48 376.43 180.53 374.05 Z"
     id="path4256" />
  <path
     fill="#2c2c2a"
     d=" M 113.92 375.27 C 116.58 375.28 119.23 375.28 121.89 375.27 C 123.84 383.30 125.80 391.33 127.79 399.35 C 130.45 391.40 132.49 383.26 134.91 375.24 C 136.86 375.26 138.80 375.27 140.75 375.30 C 143.04 383.36 145.25 391.45 147.81 399.43 C 149.73 391.37 151.87 383.35 153.70 375.27 C 156.39 375.28 159.07 375.27 161.76 375.23 C 158.31 388.22 154.91 401.23 151.24 414.16 C 149.13 414.14 147.03 414.13 144.93 414.13 C 142.50 406.42 140.28 398.66 137.89 390.95 C 135.18 398.56 133.14 406.41 130.71 414.12 C 128.57 414.13 126.44 414.13 124.31 414.12 C 120.75 401.20 117.29 388.25 113.92 375.27 Z"
     id="path4258" />
  <path
     fill="#2c2c2a"
     d=" M 248.47 375.25 C 250.83 375.27 253.19 375.27 255.55 375.24 C 255.59 379.46 255.63 383.69 255.48 387.92 C 260.18 383.27 269.54 384.78 271.46 391.41 C 272.55 397.24 272.75 403.46 271.17 409.21 C 268.59 415.49 259.68 415.97 255.09 411.67 C 255.15 412.29 255.27 413.54 255.33 414.17 C 253.03 414.14 250.73 414.13 248.44 414.09 C 248.48 401.14 248.42 388.19 248.47 375.25 Z"
     id="path4260" />
  <path
     fill="#2c2c2a"
     d=" M 391.58 376.65 C 398.09 373.53 406.40 374.55 411.98 379.17 C 410.45 380.90 408.85 382.56 407.25 384.23 C 403.77 381.68 398.54 380.08 394.79 382.93 C 392.22 384.80 392.73 389.22 395.85 390.22 C 400.42 391.60 405.92 390.84 409.73 394.25 C 415.17 399.39 413.61 409.63 406.69 412.75 C 399.40 415.86 389.94 415.07 384.08 409.37 C 385.72 407.73 387.37 406.09 388.97 404.41 C 392.95 407.53 398.91 409.14 403.53 406.47 C 406.67 404.76 405.87 399.50 402.48 398.64 C 398.45 397.77 394.07 397.88 390.39 395.82 C 383.47 391.76 384.46 380.03 391.58 376.65 Z"
     id="path4262" />
  <path
     fill="#2c2c2a"
     d=" M 445.79 375.25 C 448.15 375.27 450.52 375.27 452.89 375.28 C 452.96 379.48 452.97 383.68 452.85 387.88 C 455.54 386.24 458.61 384.42 461.90 385.43 C 465.92 386.23 469.01 389.93 469.05 394.05 C 469.39 400.74 469.07 407.45 469.18 414.15 C 466.80 414.14 464.43 414.13 462.06 414.12 C 461.90 407.77 462.43 401.37 461.79 395.05 C 461.16 390.81 453.95 390.65 453.23 394.85 C 452.47 401.20 453.26 407.63 452.85 414.01 C 450.49 414.25 448.12 414.13 445.76 414.16 C 445.78 401.19 445.73 388.22 445.79 375.25 Z"
     id="path4264" />
  <path
     fill="#2c2c2a"
     d=" M 547.69 374.99 C 550.11 375.03 552.53 375.04 554.96 375.07 C 554.97 377.01 554.97 378.95 554.97 380.90 C 552.54 380.92 550.12 380.94 547.70 380.99 C 547.68 378.99 547.68 376.99 547.69 374.99 Z"
     id="path4266" />
  <path
     fill="#2c2c2a"
     d=" M 596.75 377.77 C 599.16 374.31 603.84 374.83 607.53 374.71 C 607.52 376.80 607.51 378.89 607.48 380.98 C 605.89 381.00 604.31 381.04 602.74 381.09 C 602.48 382.90 602.31 384.72 602.20 386.56 C 603.97 386.53 605.73 386.49 607.52 386.46 C 607.51 388.30 607.51 390.14 607.49 391.99 C 605.75 392.00 604.03 392.01 602.31 392.03 C 602.34 399.40 602.33 406.77 602.33 414.15 C 599.91 414.14 597.50 414.14 595.10 414.14 C 595.09 406.77 595.09 399.41 595.10 392.05 C 594.36 392.02 592.88 391.96 592.14 391.94 C 592.13 390.12 592.13 388.30 592.14 386.49 C 592.86 386.50 594.29 386.52 595.01 386.53 C 595.18 383.58 594.64 380.18 596.75 377.77 Z"
     id="path4268" />
  <path
     fill="#2c2c2a"
     d=" M 669.70 377.96 C 672.14 377.96 674.59 377.97 677.05 378.02 C 677.05 380.86 677.04 383.69 677.06 386.53 C 678.68 386.52 680.31 386.50 681.95 386.50 C 681.95 388.32 681.94 390.14 681.94 391.97 C 680.30 391.97 678.68 391.96 677.06 391.96 C 677.27 397.16 676.53 402.46 677.49 407.60 C 678.92 408.07 680.46 407.97 681.96 408.15 C 681.96 410.15 681.98 412.15 682.02 414.16 C 677.77 414.36 672.24 414.34 670.45 409.59 C 668.85 403.94 670.03 397.88 669.72 392.07 C 668.98 392.05 667.51 392.00 666.77 391.97 C 666.76 390.14 666.77 388.31 666.79 386.49 C 667.51 386.51 668.96 386.55 669.68 386.57 C 669.69 383.70 669.68 380.83 669.70 377.96 Z"
     id="path4270" />
  <path
     fill="#2c2c2a"
     d=" M 165.72 385.60 C 168.08 385.58 170.45 385.57 172.82 385.56 C 172.98 391.72 172.60 397.89 172.99 404.03 C 173.18 407.87 178.42 409.39 180.92 406.75 C 182.08 405.78 182.06 404.16 182.19 402.78 C 182.29 397.05 182.15 391.31 182.22 385.58 C 184.62 385.58 187.02 385.58 189.42 385.56 C 189.44 395.09 189.43 404.62 189.42 414.15 C 187.11 414.14 184.79 414.14 182.48 414.15 C 182.47 413.56 182.45 412.39 182.44 411.80 C 177.56 416.36 168.11 415.02 166.26 408.13 C 165.11 400.69 166.04 393.10 165.72 385.60 Z"
     id="path4272" />
  <path
     fill="#2c2c2a"
     d=" M 204.41 387.99 C 206.75 386.59 209.20 384.91 212.07 385.19 C 214.50 385.19 216.52 386.70 218.57 387.81 C 216.74 389.60 214.93 391.41 213.17 393.27 C 210.54 391.27 205.98 391.17 204.86 394.85 C 204.19 401.24 204.79 407.73 204.58 414.16 C 202.14 414.14 199.71 414.14 197.27 414.13 C 197.32 404.60 197.20 395.07 197.34 385.54 C 199.71 385.57 202.08 385.58 204.46 385.58 C 204.44 386.18 204.42 387.39 204.41 387.99 Z"
     id="path4274" />
  <path
     fill="#2c2c2a"
     d=" M 278.70 385.60 C 281.06 385.58 283.41 385.57 285.77 385.55 C 285.97 391.70 285.57 397.87 285.96 404.01 C 286.10 407.57 290.54 409.18 293.26 407.27 C 295.04 406.14 295.14 403.81 295.19 401.93 C 295.24 396.48 295.14 391.02 295.21 385.57 C 297.60 385.57 300.01 385.58 302.41 385.57 C 302.42 395.10 302.42 404.62 302.41 414.15 C 300.05 414.14 297.68 414.14 295.33 414.14 C 295.39 413.55 295.52 412.36 295.59 411.77 C 292.83 413.63 289.49 415.19 286.08 414.28 C 282.08 413.68 278.97 409.94 278.85 405.94 C 278.49 399.17 278.81 392.38 278.70 385.60 Z"
     id="path4276" />
  <path
     fill="#2c2c2a"
     d=" M 317.36 388.00 C 319.69 386.60 322.13 384.92 325.01 385.19 C 327.43 385.19 329.45 386.67 331.48 387.81 C 329.69 389.62 327.88 391.42 326.12 393.27 C 323.44 391.19 318.72 391.22 317.79 395.07 C 317.26 401.39 317.72 407.77 317.58 414.11 C 315.13 414.13 312.68 414.14 310.24 414.15 C 310.23 404.64 310.28 395.13 310.21 385.62 C 312.61 385.58 315.01 385.57 317.42 385.54 C 317.40 386.16 317.37 387.39 317.36 388.00 Z"
     id="path4278" />
  <path
     fill="#2c2c2a"
     d=" M 336.77 386.67 C 340.65 384.09 345.58 385.22 349.09 387.87 C 349.06 387.30 349.01 386.16 348.98 385.59 C 351.29 385.58 353.61 385.58 355.92 385.59 C 355.83 395.38 356.10 405.17 355.82 414.95 C 355.41 420.27 350.65 423.99 345.70 425.00 L 341.16 425.00 C 338.10 424.56 335.37 423.05 332.76 421.49 C 334.21 419.95 335.68 418.42 337.15 416.89 C 339.87 418.24 343.23 420.03 346.15 418.11 C 348.91 416.62 348.51 413.10 349.04 410.47 C 345.41 413.05 340.42 414.11 336.51 411.48 C 332.23 408.88 332.38 403.34 332.32 398.95 C 332.35 394.59 332.40 389.07 336.77 386.67 Z"
     id="path4280" />
  <path
     fill="#2c2c2a"
     d=" M 517.70 392.71 C 520.18 385.64 529.69 383.04 535.73 387.18 C 540.82 390.25 541.73 396.74 541.42 402.17 C 535.38 402.15 529.35 402.20 523.32 402.11 C 523.85 404.36 524.52 407.17 527.06 407.93 C 530.37 409.15 533.84 407.88 536.49 405.82 C 537.85 407.28 539.26 408.70 540.65 410.15 C 534.98 415.78 524.06 416.42 518.96 409.77 C 515.79 404.78 515.83 398.15 517.70 392.71 Z"
     id="path4282" />
  <path
     fill="#2c2c2a"
     d=" M 570.38 387.66 C 573.05 385.84 576.35 384.43 579.61 385.54 C 583.48 386.48 586.24 390.05 586.51 393.98 C 586.85 400.67 586.52 407.38 586.66 414.09 C 584.27 414.12 581.88 414.14 579.50 414.17 C 579.36 407.94 579.76 401.70 579.33 395.49 C 578.78 390.83 571.27 390.52 570.29 395.05 C 569.84 401.39 570.24 407.78 570.11 414.14 C 567.67 414.14 565.23 414.14 562.80 414.14 C 562.78 404.61 562.80 395.09 562.79 385.56 C 565.30 386.14 569.88 383.97 570.38 387.66 Z"
     id="path4284" />
  <path
     fill="#2c2c2a"
     d=" M 612.48 385.58 C 614.91 385.58 617.35 385.57 619.79 385.56 C 620.01 392.02 619.50 398.52 620.04 404.97 C 621.09 409.09 627.73 409.04 628.90 404.97 C 629.66 398.54 628.97 392.02 629.25 385.56 C 631.61 385.57 633.98 385.58 636.35 385.59 C 636.33 395.11 636.34 404.62 636.34 414.14 C 634.10 414.13 631.86 414.14 629.62 414.16 C 629.49 413.62 629.24 412.53 629.11 411.98 C 624.05 416.40 614.70 414.84 613.02 407.81 C 611.85 400.49 612.82 392.98 612.48 385.58 Z"
     id="path4286" />
  <path
     fill="#2c2c2a"
     d=" M 651.11 388.08 C 653.54 386.66 656.07 384.85 659.06 385.20 C 661.44 385.24 663.42 386.72 665.43 387.82 C 663.62 389.61 661.81 391.39 660.04 393.21 C 658.16 392.50 656.10 390.97 654.09 392.22 C 651.87 393.12 651.37 395.73 651.40 397.87 C 651.36 403.29 651.44 408.72 651.41 414.15 C 649.03 414.14 646.65 414.14 644.28 414.13 C 644.28 404.62 644.33 395.12 644.26 385.62 C 646.58 385.58 648.90 385.57 651.24 385.56 C 651.20 386.19 651.14 387.45 651.11 388.08 Z"
     id="path4288" />
  <path
     fill="#2c2c2a"
     d=" M 220.95 385.60 C 228.01 385.58 235.07 385.59 242.13 385.60 C 241.92 387.96 242.64 390.74 240.85 392.67 C 237.01 397.76 233.02 402.75 229.23 407.89 C 233.51 407.73 237.79 407.75 242.07 407.77 C 242.06 409.89 242.07 412.01 242.07 414.14 C 234.75 414.13 227.44 414.15 220.13 414.13 C 220.36 411.86 219.56 409.16 221.30 407.33 C 225.13 402.23 229.08 397.21 232.85 392.06 C 228.89 392.18 224.92 392.17 220.95 392.16 C 220.95 389.97 220.95 387.78 220.95 385.60 Z"
     id="path4290" />
  <path
     fill="#2c2c2a"
     d=" M 424.14 386.96 C 429.35 383.79 435.97 385.21 440.49 388.94 C 438.84 390.61 437.18 392.27 435.55 393.95 C 433.70 392.65 431.48 391.00 429.10 392.05 C 425.48 393.30 424.95 397.80 425.18 401.08 C 425.29 403.91 426.63 407.65 429.89 407.96 C 432.11 408.48 433.93 407.05 435.65 405.90 C 437.21 407.53 438.81 409.12 440.41 410.72 C 437.09 413.75 432.44 415.22 428.01 414.21 C 422.94 413.57 419.00 409.02 418.42 404.05 C 417.37 398.01 418.21 390.26 424.14 386.96 Z"
     id="path4292" />
  <path
     fill="#2c2c2a"
     d=" M 472.96 385.59 C 475.49 385.58 478.02 385.57 480.56 385.55 C 482.25 391.39 483.69 397.31 485.15 403.22 C 487.15 397.37 489.07 391.50 490.97 385.63 C 492.70 385.59 494.43 385.56 496.18 385.53 C 498.18 391.42 500.14 397.32 502.01 403.25 C 503.71 397.39 504.93 391.40 506.71 385.56 C 509.23 385.58 511.75 385.58 514.28 385.56 C 511.23 395.04 508.48 404.60 505.49 414.10 C 503.58 414.13 501.68 414.20 499.78 414.10 C 497.24 408.50 495.94 402.43 493.68 396.72 C 491.43 402.44 489.79 408.37 487.68 414.14 C 485.73 414.14 483.78 414.13 481.84 414.14 C 478.76 404.66 476.00 395.08 472.96 385.59 Z"
     id="path4294" />
  <path
     fill="#2c2c2a"
     d=" M 547.79 385.58 C 550.17 385.58 552.57 385.59 554.96 385.60 C 554.95 395.11 554.96 404.62 554.96 414.14 C 552.56 414.14 550.17 414.14 547.79 414.15 C 547.79 404.62 547.79 395.10 547.79 385.58 Z"
     id="path4296" />
  <path
     fill="#fefefe"
     d=" M 523.30 397.18 C 523.82 394.60 525.00 391.76 527.91 391.26 C 531.54 390.46 534.20 393.87 534.48 397.17 C 530.75 397.19 527.02 397.20 523.30 397.18 Z"
     id="path4298" />
  <path
     fill="#fefefe"
     d=" M 258.22 392.20 C 260.06 391.33 262.47 391.68 263.84 393.23 C 265.41 396.24 265.29 399.82 264.93 403.11 C 264.66 404.97 264.02 407.34 261.94 407.88 C 260.03 408.16 257.56 408.19 256.61 406.15 C 255.37 403.30 255.44 400.08 255.70 397.05 C 255.95 395.22 256.24 392.96 258.22 392.20 Z"
     id="path4300" />
  <path
     fill="#fefefe"
     d=" M 340.26 394.11 C 341.50 390.62 347.61 391.09 348.21 394.77 C 348.95 397.97 349.05 401.51 347.77 404.59 C 346.59 407.20 343.30 406.28 341.07 406.07 C 339.35 402.36 338.79 397.99 340.26 394.11 Z"
     id="path4302" />
  <path
     fill="#2c2c2a"
     d=" M 363.18 395.12 C 368.78 395.17 374.38 395.16 379.98 395.14 C 380.03 397.41 380.05 399.68 380.06 401.96 C 374.43 401.97 368.81 401.94 363.18 401.98 C 363.15 399.69 363.15 397.40 363.18 395.12 Z"
     id="path4304" />
</svg>
